<svg id="Capa_1" enable-background="new 0 0 476.5 476.5" height="512" viewBox="0 0 476.5 476.5" width="512" xmlns="http://www.w3.org/2000/svg"><g><path d="m231.4 337.52c0 9.12-7.42 16.55-16.55 16.55-21.937-.913-21.941-32.184 0-33.09 9.13 0 16.55 7.42 16.55 16.54z"/><path d="m425.25 386.5v30.5h-53.93l11.87-59.79c6.65-33.52-6.59-66.61-31.82-86.68l17-168.27c41.8-6.59 73.88-42.86 73.88-86.49v-15.77h-30v15.77c0 31.74-25.82 57.55-57.55 57.55h-55.73v30h39.14l-15.35 152.05c-1.45-.46-2.92-.88-4.41-1.26-1.424-.368-130.592-33.626-131.95-33.98-11.529-1.72-23.08-1.451-34.07.59l-26.86-89.01h59.94v-30h-127.23v30h35.96l29.77 98.69c-53.014 25.946-73.459 96.19-41.449 146.9-.001 0 24.359 39.7 24.359 39.7h-55.57v-30.5h-30v90h30v-29.5h374v29.5h30v-90zm-210.4-2.43c-20.42 0-37.81-13.22-44.06-31.55h-27.54v-30h27.54c17.565-49.078 89.583-37.754 90.61 15.001 0 25.669-20.88 46.549-46.55 46.549z"/></g></svg>