<?xml version="1.0" encoding="iso-8859-1"?>
<!-- Generator: Adobe Illustrator 19.0.0, SVG Export Plug-In . SVG Version: 6.00 Build 0)  -->
<svg version="1.1" id="Capa_1" xmlns="http://www.w3.org/2000/svg" xmlns:xlink="http://www.w3.org/1999/xlink" x="0px" y="0px"
	 viewBox="0 0 512 512" style="enable-background:new 0 0 512 512;" xml:space="preserve">
<g>
	<g>
		<path d="M256,0c-24.814,0-45,20.186-45,45c0,24.814,20.186,45,45,45c24.814,0,45-20.186,45-45S280.814,0,256,0z"/>
	</g>
</g>
<g>
	<g>
		<path d="M497,241c-8.291,0-15,6.709-15,15v45h-75.731c-0.066,0-0.13-0.029-0.196-0.029c-9.977,0-19.334,4.838-25.034,13.389
			l-39.697,59.546l-25.344-23.514c-2.813-2.813-6.627-4.391-10.604-4.391H256h-49.395c-3.977,0-7.791,1.578-10.604,4.391
			l-25.344,23.514L130.96,314.36c-5.676-8.516-15.013-13.374-24.99-13.374c-0.033,0-0.066,0.015-0.099,0.015H30v-45
			c0-8.291-6.709-15-15-15s-15,6.709-15,15v120c0,8.291,6.709,15,15,15s15-6.709,15-15v-45h46.573
			c-0.004,5.867,1.141,11.649,4.466,16.641l59.985,89.985c7.864,11.819,22.264,16.154,34.922,11.646L196,442.094V497
			c0,8.284,6.716,15,15,15h90c8.284,0,15-6.716,15-15v-54.701l19.966,7.002c12.665,4.433,27.162,0.088,34.995-11.66l60-90
			c3.325-4.991,4.47-10.774,4.466-16.641H482v45c0,8.291,6.709,15,15,15c8.291,0,15-6.709,15-15V256
			C512,247.709,505.291,241,497,241z"/>
	</g>
</g>
<g>
	<g>
		<path d="M442.768,265.068c-5.786-5.537-42.729-43.305-135.571-136.264C301.513,123.12,293.983,120,286,120h-60
			c-7.983,0-15.513,3.12-20.962,8.569C185.618,147.918,97.266,236.98,72.581,261.934c-10.078,10.186-13.118,20.339-11.288,29.383
			c12.361-13.9,28.185-20.332,44.678-20.332c11.781,0,23.104,3.45,32.884,9.846L196,223.686v32.778
			C209.682,238.085,231.38,226,256,226s46.318,12.085,60,30.463v-32.792l57.131,57.151c6.335-4.153,13.438-7.137,21.077-8.665
			c20.294-4.03,41.331,2.034,56.6,19.276C451.731,283.342,449.825,274.159,442.768,265.068z"/>
	</g>
</g>
<g>
	<g>
		<circle cx="256" cy="301" r="45"/>
	</g>
</g>
<g>
</g>
<g>
</g>
<g>
</g>
<g>
</g>
<g>
</g>
<g>
</g>
<g>
</g>
<g>
</g>
<g>
</g>
<g>
</g>
<g>
</g>
<g>
</g>
<g>
</g>
<g>
</g>
<g>
</g>
</svg>
